<svg xmlns="http://www.w3.org/2000/svg"  viewBox="0 0 48 48" width="48px" height="48px"><path fill="#c2ffff" d="M22,4v3v37.107C23.22,44.723,24,45,24,45s17-6,17-25V4H22z"/><path fill="#7debf5" d="M24,7v38c0,0-17-6-17-25V7H24z"/><path fill="#3dd9eb" d="M26,7h-4v37.107C23.22,44.723,24,45,24,45s0.78-0.277,2-0.893V7z"/><path fill="#6c19ff" d="M11,14c0.857-0.499,3.904-1.733,7.418-0.483c2.969,1.056,3.787,3.576,3.542,4.483L11,14z"/><path fill="#6c19ff" d="M37,14c-0.857-0.499-3.904-1.733-7.418-0.483c-2.969,1.056-3.787,3.576-3.542,4.483L37,14z"/><polygon fill="#6c19ff" points="22,37 26,37 24,45"/><path fill="#6c19ff" d="M16,19c2.209,0,4,1.343,4,3h-8C12,20.343,13.791,19,16,19z"/><path fill="#6c19ff" d="M32,19c2.209,0,4,1.343,4,3h-8C28,20.343,29.791,19,32,19z"/><g><polygon fill="#6c19ff" points="33,34 26,34 24,32 22,34 15,34 12,31 14,29 16,31 21,31 24,28 27,31 32,31 34,29 36,31"/></g></svg>